<svg width="22" height="31" viewBox="0 0 22 31" fill="none" xmlns="http://www.w3.org/2000/svg">
<path d="M0 0L2.96178 23.3054L7.73827 24.3378L5.8656 9.10071L18.9689 17.0994L20.0014 12.323L0 0Z" fill="#0973E2"/>
<path d="M7.98724 12.3925L9.41877 24.5574L11.9341 25.07L11.0318 17.1162L17.9028 21.2231L18.4748 18.7206L7.98724 12.3925Z" fill="#32FFFF"/>
<path d="M17.472 27.1086L9.49377 24.6737L10.4749 22.806L15.7094 24.3738L16.4436 18.959L18.5498 18.8369L17.472 27.1086Z" fill="#32FFFF"/>
<path d="M0.830566 3.30172L2.8756 20.6203L2.5911 6.03326L0.830566 3.30172Z" fill="#FFFD4A"/>
<path d="M2.66387 2.12012L17.5916 11.1355L4.42441 4.85165L2.66387 2.12012Z" fill="#FFFD4A"/>
</svg>
