<svg width="185" height="179" viewBox="0 0 185 179" fill="none" xmlns="http://www.w3.org/2000/svg">
<g filter="url(#filter0_d_702_38)">
<path d="M100.663 15.0191C107.657 8.30473 119.296 11.6789 121.614 21.0927L127.002 42.9729C129.32 52.3866 120.578 60.7795 111.266 58.0801L89.6237 51.806C80.3122 49.1066 77.4147 37.3395 84.4081 30.6251L100.663 15.0191ZM27.2484 50.336C29.2406 43.4638 36.4266 39.5079 43.2987 41.5001L61.3477 46.7324C68.2198 48.7246 72.1758 55.9106 70.1836 62.7827L64.9513 80.8317C62.9591 87.7039 55.7731 91.6598 48.9009 89.6676L30.852 84.4353C23.9798 82.4431 20.0238 75.2571 22.0161 68.3849L27.2484 50.336ZM74.8106 101.663C76.9698 100.475 79.6838 101.261 80.8725 103.421C82.8602 107.031 87.3986 108.347 91.0092 106.359C93.1684 105.17 95.8824 105.957 97.0711 108.116L102.822 118.564C104.011 120.723 103.224 123.437 101.065 124.626C97.4545 126.613 96.1388 131.152 98.1265 134.762C99.3152 136.922 98.5284 139.636 96.3692 140.824L85.922 146.576C83.7627 147.764 81.0488 146.977 79.8601 144.818C77.8724 141.208 73.334 139.892 69.7233 141.88C67.5641 143.068 64.8501 142.282 63.6615 140.122L57.9101 129.675C56.7214 127.516 57.5082 124.802 59.6674 123.613C63.2781 121.625 64.5938 117.087 62.606 113.476C61.4174 111.317 62.2041 108.603 64.3633 107.415L74.8106 101.663ZM161.977 99.1763C158.54 111.033 146.143 117.858 134.286 114.421C122.43 110.983 115.605 98.5858 119.042 86.7296C122.479 74.8733 134.877 68.0483 146.733 71.4853C158.589 74.9224 165.414 87.3201 161.977 99.1763Z" stroke="white" stroke-width="3" shape-rendering="crispEdges"/>
</g>
<defs>
<filter id="filter0_d_702_38" x="0" y="0" width="184.367" height="178.63" filterUnits="userSpaceOnUse" color-interpolation-filters="sRGB">
<feFlood flood-opacity="0" result="BackgroundImageFix"/>
<feColorMatrix in="SourceAlpha" type="matrix" values="0 0 0 0 0 0 0 0 0 0 0 0 0 0 0 0 0 0 127 0" result="hardAlpha"/>
<feOffset dy="10"/>
<feGaussianBlur stdDeviation="10"/>
<feComposite in2="hardAlpha" operator="out"/>
<feColorMatrix type="matrix" values="0 0 0 0 0 0 0 0 0 0 0 0 0 0 0 0 0 0 0.25 0"/>
<feBlend mode="normal" in2="BackgroundImageFix" result="effect1_dropShadow_702_38"/>
<feBlend mode="normal" in="SourceGraphic" in2="effect1_dropShadow_702_38" result="shape"/>
</filter>
</defs>
</svg>
